<?xml version="1.0" standalone="no"?>
<!DOCTYPE svg PUBLIC "-//W3C//DTD SVG 20010904//EN"
 "http://www.w3.org/TR/2001/REC-SVG-20010904/DTD/svg10.dtd">
<svg version="1.0" xmlns="http://www.w3.org/2000/svg"
 width="188.000000pt" height="333.000000pt" viewBox="0 0 188.000000 333.000000"
 preserveAspectRatio="xMidYMid meet">

<g transform="translate(0.000000,333.000000) scale(0.100000,-0.100000)"
fill="#000000" stroke="none">
<path d="M432 741 c-18 -28 -28 -51 -22 -51 5 0 12 5 15 10 3 6 24 10 46 10
21 0 39 -4 39 -10 0 -5 5 -10 11 -10 10 0 -8 36 -40 79 l-18 23 -31 -51z m44
-9 c-22 -5 -30 3 -21 18 5 8 11 7 22 -2 15 -12 14 -13 -1 -16z"/>
<path d="M600 742 c0 -29 5 -52 10 -52 6 0 10 14 10 32 0 31 0 31 21 12 19
-17 22 -18 50 -2 l29 17 0 -29 c0 -17 5 -30 10 -30 6 0 10 23 10 51 l0 51 -35
-26 c-36 -28 -44 -27 -82 7 l-23 20 0 -51z"/>
<path d="M820 741 c0 -28 5 -51 10 -51 6 0 10 7 10 15 0 10 10 15 33 15 43 0
59 12 55 41 -3 21 -9 24 -55 27 l-53 3 0 -50z m89 30 c22 -14 3 -31 -35 -31
-27 0 -34 4 -34 20 0 15 7 20 28 20 15 0 33 -4 41 -9z"/>
<path d="M1010 740 l0 -50 53 2 52 1 -44 6 c-55 7 -68 31 -17 31 19 0 38 5 41
10 4 6 -10 10 -35 10 -56 0 -48 23 11 31 l44 6 -52 1 -53 2 0 -50z"/>
<path d="M1191 738 c0 -29 3 -46 6 -38 12 31 50 33 74 4 6 -8 16 -14 21 -14 6
0 6 6 -1 14 -9 11 -9 19 0 34 22 35 5 52 -51 52 l-50 0 1 -52z m87 20 c3 -14
-4 -18 -32 -18 -36 0 -52 12 -41 31 11 17 69 6 73 -13z"/>
<path d="M1380 740 l0 -50 53 2 c50 1 50 2 10 5 -55 5 -61 33 -8 33 19 0 35 5
35 10 0 6 -16 10 -35 10 -53 0 -47 28 8 33 40 3 40 4 -10 5 l-53 2 0 -50z"/>
</g>
</svg>
