<?xml version="1.0" standalone="no"?>
<!DOCTYPE svg PUBLIC "-//W3C//DTD SVG 20010904//EN"
 "http://www.w3.org/TR/2001/REC-SVG-20010904/DTD/svg10.dtd">
<svg version="1.0" xmlns="http://www.w3.org/2000/svg"
 width="543.000000pt" height="328.000000pt" viewBox="0 0 543.000000 328.000000"
 preserveAspectRatio="xMidYMid meet">

<g transform="translate(0.000000,328.000000) scale(0.100000,-0.100000)"
fill="#000000" stroke="none">
<path d="M2930 1040 l0 -1040 1250 0 1250 0 0 1040 0 1040 -1250 0 -1250 0 0
-1040z m2438 934 c12 -8 22 -25 22 -38 0 -37 -99 -144 -250 -271 -220 -184
-216 -180 -201 -198 7 -9 11 -26 9 -39 -2 -19 -15 -27 -83 -46 -96 -27 -334
-75 -465 -93 -147 -21 -544 -18 -715 5 -211 28 -233 43 -95 67 53 9 215 14
555 15 264 1 485 2 490 3 6 1 1 7 -10 14 -15 9 -142 13 -485 15 -475 3 -480 3
-713 -37 -85 -14 -209 23 -215 65 -6 45 144 89 418 120 211 25 701 24 905 -1
83 -10 172 -19 200 -19 l49 -1 63 80 c131 165 272 291 388 346 68 33 101 36
133 13z m-2122 -665 c100 -80 213 -125 408 -165 285 -57 439 -142 541 -297 49
-76 72 -155 90 -316 9 -87 23 -161 34 -186 23 -52 71 -90 134 -105 26 -7 47
-16 47 -21 0 -14 -14 -11 -87 16 -199 75 -310 154 -569 406 -88 86 -171 162
-184 169 l-23 12 5 -69 c9 -121 78 -241 183 -320 122 -92 289 -160 505 -208
63 -14 125 -28 138 -30 12 -3 22 -9 22 -14 0 -28 -298 -56 -443 -41 -160 16
-257 44 -392 113 -62 32 -101 62 -175 136 -83 84 -102 110 -148 201 -90 182
-132 376 -132 615 0 74 2 135 4 135 2 0 21 -14 42 -31z m1725 -115 c39 -411
-88 -725 -358 -882 -98 -57 -161 -55 -217 7 -23 25 -31 17 116 115 144 95 236
189 268 273 26 64 34 203 14 223 -13 13 -24 1 -189 -230 -130 -181 -220 -290
-239 -290 -16 0 -26 73 -26 192 0 167 -30 241 -138 345 -35 33 -61 66 -58 72
14 23 135 81 196 95 36 8 110 17 165 21 196 12 281 45 381 146 43 43 60 55 66
45 4 -7 13 -67 19 -132z"/>
</g>
</svg>
